:version 1.10
:name ASF
:units
  mass 1
  length 1
  angle deg
:documentation
  ASF file generated by Kaydara
:root
  axis xyz
  order  tx ty tz rx ry rz
  position 0 0 0
  orientation 0 0 0
:bonedata
  begin
    id 1
    name SpineDummy
    direction 0.999998 -0.00179978 1.38929e-006
    length 3.60008
    axis 0 0 0 xyz
  end
  begin
    id 2
    name Spine
    direction 0.964365 0.262802 0.0305839
    length 8.13928
    axis 1.33928 -1.75354 15.2838 xyz
    dof rx ry rz
  end
  begin
    id 3
    name Spine1
    direction 0.811168 0.572065 0.12144
    length 7.14954
    axis 2.2224 -6.9761 35.2157 xyz
    dof rx ry rz
  end
  begin
    id 4
    name Neck
    direction 0 0 0
    length 0
    axis 2.2224 -6.9761 35.2157 xyz
    dof rx ry rz
  end
  begin
    id 5
    name HeadDummy
    direction 0.810939 0.572387 0.121455
    length 3.55534
    axis 2.2224 -6.9761 35.2157 xyz
  end
  begin
    id 6
    name Head
    direction 0.998226 -0.000232542 0.0595419
    length 7.35666
    axis -3.03688 -3.41352 -0.0133467 xyz
    dof rx ry rz
  end
  begin
    id 7
    name R_ClavicleDummy
    direction 0.531669 -0.194489 -0.824319
    length 2.49392
    axis 2.2224 -6.9761 35.2157 xyz
  end
  begin
    id 8
    name R_Clavicle
    direction -0.155119 0.0480802 -0.986725
    length 4.485
    axis -54.2764 80.6538 162.779 xyz
    dof rx ry rz
  end
  begin
    id 9
    name R_UpperArm
    direction -0.955567 0.200068 -0.216484
    length 10.1122
    axis -72.9943 12.5026 168.175 xyz
    dof rx ry rz
  end
  begin
    id 10
    name R_Forearm
    direction -0.61433 0.385743 0.688332
    length 9.39148
    axis -117.015 -43.4982 147.875 xyz
    dof rx ry rz
  end
  begin
    id 11
    name R_Hand
    direction -0.699429 0.0170333 0.714499
    length 3.66324
    axis -45.0303 -36.7097 175.478 xyz
    dof rx ry rz
  end
  begin
    id 12
    name L_ClavicleDummy
    direction 0.40287 -0.36502 0.839319
    length 2.49392
    axis 2.2224 -6.9761 35.2157 xyz
  end
  begin
    id 13
    name L_Clavicle
    direction -0.231271 -0.0726419 0.970174
    length 4.485
    axis 18.4357 -75.9711 -162.563 xyz
    dof rx ry rz
  end
  begin
    id 14
    name L_UpperArm
    direction -0.917494 0.144359 0.370629
    length 10.1122
    axis 56.0417 -21.7544 171.058 xyz
    dof rx ry rz
  end
  begin
    id 15
    name L_Forearm
    direction -0.496786 0.615074 -0.612281
    length 9.39148
    axis 89.8094 37.7546 128.927 xyz
    dof rx ry rz
  end
  begin
    id 16
    name L_Hand
    direction -0.409932 0.64962 -0.640274
    length 3.66324
    axis -0.424369 32.133 128.52 xyz
    dof rx ry rz
  end
  begin
    id 17
    name L_ThighDummy
    direction -1.84081e-006 1.87549e-006 1
    length 3.13049
    axis 0 0 0 xyz
  end
  begin
    id 18
    name L_Thigh
    direction -0.947739 0.307978 0.083308
    length 17.9961
    axis 173.219 -4.77873 161.998 xyz
    dof rx ry rz
  end
  begin
    id 19
    name L_Calf
    direction -0.728814 -0.684427 0.0197583
    length 13.3367
    axis 167.331 -1.13214 -136.799 xyz
    dof rx ry rz
  end
  begin
    id 20
    name L_Foot
    direction -0.9028 0.418719 0.0981191
    length 5.8674
    axis 163.436 11.5135 -155.37 xyz
    dof rx ry rz
  end
  begin
    id 21
    name L_Toe0
    direction -0.35341 0.886259 0.299411
    length 4.75286
    axis 169.316 -17.4222 111.74 xyz
    dof rx ry rz
  end
  begin
    id 22
    name R_ThighDummy
    direction 9.32778e-007 -8.82053e-007 -1
    length 3.13049
    axis 0 0 0 xyz
  end
  begin
    id 23
    name R_Thigh
    direction -0.925064 0.37528 -0.0585023
    length 17.9961
    axis -178.698 3.35385 157.919 xyz
    dof rx ry rz
  end
  begin
    id 24
    name R_Calf
    direction -0.68969 -0.718776 -0.0876886
    length 13.3367
    axis -160.504 5.03065 -133.817 xyz
    dof rx ry rz
  end
  begin
    id 25
    name R_Foot
    direction -0.857405 0.418858 -0.299022
    length 5.8674
    axis -161.328 4.38911 -154.413 xyz
    dof rx ry rz
  end
  begin
    id 26
    name R_Toe0
    direction -0.100745 0.952789 -0.286433
    length 4.75286
    axis 171.683 16.6445 96.0359 xyz
    dof rx ry rz
  end
:hierarchy
  begin
    root SpineDummy L_ThighDummy R_ThighDummy
    SpineDummy Spine
    Spine Spine1
    Spine1 Neck
    Neck HeadDummy R_ClavicleDummy L_ClavicleDummy
    HeadDummy Head
    R_ClavicleDummy R_Clavicle
    R_Clavicle R_UpperArm
    R_UpperArm R_Forearm
    R_Forearm R_Hand
    L_ClavicleDummy L_Clavicle
    L_Clavicle L_UpperArm
    L_UpperArm L_Forearm
    L_Forearm L_Hand
    L_ThighDummy L_Thigh
    L_Thigh L_Calf
    L_Calf L_Foot
    L_Foot L_Toe0
    R_ThighDummy R_Thigh
    R_Thigh R_Calf
    R_Calf R_Foot
    R_Foot R_Toe0
  end

:SAMPLES-PER-SECOND 30
:FULLY-SPECIFIED
:DEGREES
85
root  -15.4164 29.1531 17.2953 -100.326 1.65506 87.1882
Spine  -2.42113 -5.73634 -3.36966
Spine1  -2.28764 4.80097 -5.26443
Neck  3.97569e-016 0 -2.38542e-015
Head  12.2713 8.47078 -2.67201
R_Clavicle  0.310632 -13.8402 0.687841
R_UpperArm  19.6743 -7.15304 19.3888
R_Forearm  29.8101 -16.4863 14.327
R_Hand  -1.23344 4.65564 -20.6094
L_Clavicle  -0.49274 16.8792 -1.70019
L_UpperArm  15.165 5.42107 -3.50467
L_Forearm  -12.3908 21.1545 26.867
L_Hand  0.05933 3.50674 0.937838
L_Thigh  -8.67348 -10.8836 -12.658
L_Calf  -10.5078 -0.443724 3.45088
L_Foot  9.50632 3.45349 33.6037
L_Toe0  0.403493 0.0407115 -6.07876
R_Thigh  -2.1759 -8.80581 11.0435
R_Calf  2.92563 -3.75533 -11.7377
R_Foot  2.73379 8.79855 -5.38089
R_Toe0  11.9256 -3.38493 -1.98245
86
root  -15.4804 30.3987 16.7915 -95.7697 2.03424 86.9783
Spine  -2.66158 -5.60114 -5.51564
Spine1  -2.76109 6.26623 -5.36125
Neck  3.97569e-016 0 -2.38542e-015
Head  11.558 5.55406 1.32642
R_Clavicle  0.364257 -16.6189 1.01708
R_UpperArm  17.8138 -7.78498 24.3532
R_Forearm  32.0926 -24.4943 20.7156
R_Hand  -1.50293 5.11692 -23.2009
L_Clavicle  -0.582114 19.1834 -1.21352
L_UpperArm  13.1638 8.62974 3.80487
L_Forearm  -12.0798 27.6609 34.0735
L_Hand  -0.0785073 1.54698 -1.2031
L_Thigh  -7.70579 -9.82814 -14.6786
L_Calf  -5.8 -1.21062 9.08863
L_Foot  8.91929 6.83425 25.7432
L_Toe0  0.770221 -0.0152294 -4.35823
R_Thigh  -1.15308 -6.43519 9.90044
R_Calf  6.8583 -2.91982 -9.13481
R_Foot  1.83362 4.21848 -8.68686
R_Toe0  11.4249 -1.93049 -10.6818
87
root  -15.52 31.8281 16.1255 -90.2291 3.41421 86.072
Spine  -3.00417 -7.60321 -8.5609
Spine1  -3.29673 9.6507 -5.93772
Neck  3.97569e-016 0 -2.38542e-015
Head  9.94146 2.99169 5.38915
R_Clavicle  0.405826 -19.4194 1.51565
R_UpperArm  28.828 -8.77214 32.7925
R_Forearm  25.4649 -31.0435 21.3582
R_Hand  -1.43148 4.59417 -22.6169
L_Clavicle  -0.606012 20.7422 -0.313189
L_UpperArm  -5.3495 10.971 11.2997
L_Forearm  0.0507738 38.6692 38.6664
L_Hand  -0.0797331 0.407576 -1.52089
L_Thigh  -8.58981 -8.30812 -15.131
L_Calf  2.62479 -1.83764 13.7737
L_Foot  6.55596 10.0296 13.6993
L_Toe0  3.62537 -0.451146 0.874166
R_Thigh  0.395516 -4.05443 8.10401
R_Calf  5.8843 -1.20197 -3.7745
R_Foot  1.22003 2.55877 -5.21194
R_Toe0  1.1718 -0.250143 -15.5977
88
root  -15.6701 33.0845 15.4688 -84.8878 4.73342 84.8154
Spine  -3.5493 -9.0183 -11.0711
Spine1  -4.03929 11.3232 -6.62204
Neck  3.97569e-016 0 -2.38542e-015
Head  8.26673 1.14005 8.32022
R_Clavicle  0.42056 -21.1965 1.94351
R_UpperArm  38.1114 -10.1858 41.2592
R_Forearm  21.2521 -33.2344 22.774
R_Hand  -1.25065 4.34506 -20.7743
L_Clavicle  -0.582428 20.8899 0.324081
L_UpperArm  -20.2889 12.05 19.8881
L_Forearm  9.68848 42.6684 44.0982
L_Hand  -0.00238823 0.0665901 -0.0302438
L_Thigh  -9.72707 -7.73288 -14.5127
L_Calf  9.64093 -2.19242 16.4755
L_Foot  2.83752 11.47 0.0801038
L_Toe0  6.33412 -1.34849 5.45948
R_Thigh  1.55808 -2.25843 6.93154
R_Calf  0.153141 0.969424 2.93913
R_Foot  1.58712 4.1916 -5.09747
R_Toe0  -2.11402 -0.262511 -17.5109
89
root  -15.9252 34.0814 14.8777 -79.9988 5.09297 84.1004
Spine  -4.32423 -8.46249 -12.0662
Spine1  -4.94501 11.1903 -7.65212
Neck  3.97569e-016 0 -2.38542e-015
Head  7.18267 -0.995783 10.4475
R_Clavicle  0.42539 -21.4628 2.56477
R_UpperArm  44.4498 -11.3865 48.1683
R_Forearm  21.4956 -34.1397 24.664
R_Hand  -1.14203 5.00477 -19.7501
L_Clavicle  -0.546466 19.9519 0.624746
L_UpperArm  -22.7044 11.963 29.3901
L_Forearm  4.66205 40.6203 45.1409
L_Hand  0.0394462 0.483536 0.760156
L_Thigh  -9.73292 -7.64111 -14.1265
L_Calf  11.9328 -2.38294 17.8428
L_Foot  -0.860868 10.1435 -11.7956
L_Toe0  9.04008 -2.24018 7.46489
R_Thigh  2.16535 -0.336161 5.37603
R_Calf  -6.02107 3.54167 10.9907
R_Foot  2.32452 6.23229 -9.13799
R_Toe0  -1.78853 -0.272788 -17.3235
90
root  -16.1994 34.6887 14.3503 -75.6721 4.59894 83.6565
Spine  -4.97348 -7.40549 -11.6903
Spine1  -5.68402 10.885 -9.07931
Neck  3.97569e-016 0 -2.38542e-015
Head  6.26353 -3.48432 11.9818
R_Clavicle  0.444769 -20.2614 3.37072
R_UpperArm  48.7922 -11.9474 53.8279
R_Forearm  24.6628 -35.0684 27.0218
R_Hand  -1.11063 5.78584 -19.5445
L_Clavicle  -0.500378 18.2604 0.892159
L_UpperArm  -23.2417 10.7732 37.9982
L_Forearm  -2.89314 38.576 44.4513
L_Hand  0.0183264 1.73413 0.364668
L_Thigh  -10.7395 -7.22411 -13.7455
L_Calf  11.0981 -2.23997 16.5734
L_Foot  -3.34983 6.79903 -19.7956
L_Toe0  11.1376 -2.46121 6.33586
R_Thigh  1.98893 1.86641 3.43358
R_Calf  -9.41281 6.17754 19.5564
R_Foot  2.56478 6.54078 -12.5976
R_Toe0  -1.78853 -0.272788 -17.3235
91
root  -16.4669 34.8348 13.9071 -71.7838 3.83259 83.2674
Spine  -5.3097 -6.25971 -11.1139
Spine1  -6.0366 10.5234 -9.83049
Neck  3.97569e-016 0 -2.38542e-015
Head  4.83593 -5.29943 12.4654
R_Clavicle  0.489356 -18.1966 3.93259
R_UpperArm  51.5112 -12.0677 58.8728
R_Forearm  28.9113 -35.555 29.5471
R_Hand  -1.071 6.18222 -19.2386
L_Clavicle  -0.449867 15.8632 1.39778
L_UpperArm  -23.8326 8.17545 44.2321
L_Forearm  -8.19083 37.1763 43.8539
L_Hand  -0.00164181 2.9268 0.121784
L_Thigh  -13.0867 -6.41118 -12.7779
L_Calf  9.86718 -1.65435 11.9818
L_Foot  -4.31498 3.84845 -23.1057
L_Toe0  9.96615 -1.46324 2.19975
R_Thigh  2.36772 3.70822 2.45663
R_Calf  -10.3595 8.28545 26.8152
R_Foot  2.95385 8.38615 -14.9539
R_Toe0  -1.78853 -0.272788 -17.3235
92
root  -16.735 34.5541 13.5246 -67.7789 2.85727 83.1143
Spine  -5.54587 -4.48333 -11.1482
Spine1  -6.15892 9.8412 -9.12111
Neck  3.97569e-016 0 -2.38542e-015
Head  2.73343 -6.15932 11.9349
R_Clavicle  0.546219 -15.7882 4.23734
R_UpperArm  53.2033 -12.0286 63.7708
R_Forearm  31.9349 -35.4962 31.4431
R_Hand  -0.974483 6.34327 -18.4179
L_Clavicle  -0.42198 13.1161 2.06029
L_UpperArm  -25.1554 3.89936 48.0782
L_Forearm  -9.17275 36.3996 43.5603
L_Hand  0.00606584 3.28096 0.277871
L_Thigh  -14.1781 -5.54318 -11.6091
L_Calf  9.69549 -0.825288 5.73397
L_Foot  -4.28392 2.3797 -22.6526
L_Toe0  5.20968 -0.315723 -1.8664
R_Thigh  6.22475 4.6078 2.78144
R_Calf  -10.5821 9.68393 31.9557
R_Foot  3.81411 14.3499 -18.8815
R_Toe0  -1.64709 -0.290425 -17.4539
93
root  -17.0253 33.8194 13.1193 -63.3789 1.58488 82.6367
Spine  -5.89034 -3.00012 -11.0847
Spine1  -6.38479 9.47959 -8.17857
Neck  3.97569e-016 0 -2.38542e-015
Head  0.308102 -6.79981 11.4253
R_Clavicle  0.637646 -12.9352 4.69283
R_UpperArm  54.0047 -12.1101 68.9245
R_Forearm  33.0219 -34.8271 31.9875
R_Hand  -0.822178 6.20948 -17.0593
L_Clavicle  -0.419937 10.3727 2.57585
L_UpperArm  -27.5857 -1.44138 50.4044
L_Forearm  -7.07544 36.2488 43.9704
L_Hand  0.00735619 3.27844 0.255808
L_Thigh  -13.679 -4.99617 -10.7952
L_Calf  9.77148 0.0598635 -0.784062
L_Foot  -3.9368 1.68867 -20.7824
L_Toe0  5.20726 -0.367305 -1.99148
R_Thigh  14.1755 4.3448 3.50583
R_Calf  -10.5677 10.2643 34.2145
R_Foot  4.01013 16.4205 -22.9104
R_Toe0  -3.05463 -0.111522 -16.1519
94
root  -17.3648 32.5821 12.6655 -59.1411 -0.0635873 81.2567
Spine  -6.21741 -2.23906 -9.6505
Spine1  -6.72509 9.23282 -8.42357
Neck  3.97569e-016 0 -2.38542e-015
Head  -1.92925 -7.40869 11.5182
R_Clavicle  0.744604 -9.80779 5.01104
R_UpperArm  54.096 -12.4595 74.6937
R_Forearm  33.3208 -33.4316 31.1194
R_Hand  -0.719644 5.85991 -16.0174
L_Clavicle  -0.433839 7.1633 2.97338
L_UpperArm  -30.8457 -6.76223 51.8347
L_Forearm  -5.13086 36.3425 45.1906
L_Hand  0.00370476 3.1852 0.173446
L_Thigh  -13.3516 -4.56492 -10.6285
L_Calf  7.95805 1.04707 -8.02269
L_Foot  -3.49929 1.40024 -18.5219
L_Toe0  8.74027 -1.25861 2.30421
R_Thigh  21.7139 3.90243 4.08352
R_Calf  -8.97261 9.60421 31.7166
R_Foot  2.36809 3.19508 -20.6903
R_Toe0  -8.08487 0.473243 -11.6971
95
root  -17.7586 30.958 12.2087 -55.9402 -2.31385 79.0897
Spine  -6.26155 -0.916646 -7.20739
Spine1  -6.76847 7.55025 -8.57625
Neck  3.97569e-016 0 -2.38542e-015
Head  -3.87739 -7.32618 11.1802
R_Clavicle  0.720693 -7.36778 4.37721
R_UpperArm  53.5053 -12.7311 80.8633
R_Forearm  34.2254 -32.0507 29.7896
R_Hand  -0.8068 5.75498 -16.7781
L_Clavicle  -0.516009 3.08739 3.7764
L_UpperArm  -34.1376 -12.0985 52.2133
L_Forearm  -3.61947 36.2496 46.6018
L_Hand  -0.0148807 2.45023 -0.091439
L_Thigh  -14.1306 -3.75389 -11.6136
L_Calf  4.39881 2.18616 -16.4971
L_Foot  -2.62374 2.24071 -14.7512
L_Toe0  6.82626 -1.64432 7.10342
R_Thigh  24.9158 4.0386 4.79796
R_Calf  -2.33271 7.37198 23.6793
R_Foot  -2.93082 -19.8689 -9.23361
R_Toe0  -4.18784 -0.00617308 -13.9194
96
root  -18.1581 29.3188 11.786 -53.9915 -4.89917 76.5814
Spine  -5.89471 1.27861 -5.72225
Spine1  -6.26622 4.2407 -6.37121
Neck  3.97569e-016 0 -2.38542e-015
Head  -6.06416 -6.37695 9.45788
R_Clavicle  0.53881 -6.07761 2.95652
R_UpperArm  51.962 -12.5576 85.8433
R_Forearm  35.7699 -31.8438 29.0537
R_Hand  -1.04233 6.07452 -18.9706
L_Clavicle  -0.744434 -0.781631 5.23123
L_UpperArm  -36.9191 -18.2421 51.1775
L_Forearm  0.659884 36.2147 47.546
L_Hand  -0.0823202 1.01403 -1.33442
L_Thigh  -15.5673 -2.672 -14.2594
L_Calf  1.37583 3.22982 -24.542
L_Foot  -0.982868 4.44612 -8.81088
L_Toe0  -0.24609 -0.133413 8.46537
R_Thigh  25.0468 3.26823 6.29504
R_Calf  5.91263 3.58559 11.3692
R_Foot  -8.6659 -25.2835 4.28378
R_Toe0  2.61686 -0.398673 -15.2597
97
root  -18.3506 28.2274 11.4977 -52.5804 -7.04026 74.9009
Spine  -5.34226 3.41484 -6.16427
Spine1  -5.61117 1.45585 -2.5916
Neck  3.97569e-016 0 -2.38542e-015
Head  -8.87478 -5.38045 7.78241
R_Clavicle  0.387194 -5.2829 1.92085
R_UpperArm  49.7953 -12.2461 87.2248
R_Forearm  36.2877 -32.86 28.8823
R_Hand  -1.15028 6.3763 -19.9468
L_Clavicle  -0.994457 -3.04843 6.46582
L_UpperArm  -38.3885 -23.9962 48.7095
L_Forearm  7.59689 36.2913 47.3166
L_Hand  -0.145319 -0.15888 -3.08654
L_Thigh  -16.5163 -1.49078 -17.4841
L_Calf  -0.324996 3.79569 -29.1197
L_Foot  1.00599 6.33288 -2.12642
L_Toe0  -4.45271 0.956495 7.49225
R_Thigh  24.1314 3.65783 6.51836
R_Calf  10.4354 1.30893 4.23812
R_Foot  -11.1978 -24.1906 12.293
R_Toe0  0.225157 -0.276542 -16.1726
98
root  -18.1573 28.0237 11.4933 -50.9145 -7.68109 74.6205
Spine  -5.08037 3.9389 -7.64202
Spine1  -5.24313 1.22562 -0.57206
Neck  3.97569e-016 0 -2.38542e-015
Head  -11.6277 -5.15957 8.82327
R_Clavicle  0.368663 -4.85841 1.80574
R_UpperArm  48.004 -11.9281 83.7702
R_Forearm  34.1197 -34.396 28.9008
R_Hand  -1.00198 6.17352 -18.6351
L_Clavicle  -1.06472 -3.44371 6.82106
L_UpperArm  -37.0752 -26.0143 45.1236
L_Forearm  11.5669 35.518 44.8478
L_Hand  -0.181622 -0.105092 -3.76949
L_Thigh  -16.0187 -1.03481 -19.4439
L_Calf  -1.26489 3.70756 -28.4021
L_Foot  2.38195 5.93372 3.64226
L_Toe0  -4.94167 1.06794 7.40065
R_Thigh  23.636 4.23049 6.50854
R_Calf  11.523 1.2335 3.9693
R_Foot  -10.1089 -22.3359 11.2531
R_Toe0  -0.020081 -0.273283 -16.3149
